<?xml version="1.0" encoding="UTF-8" standalone="no"?>
<svg id="svg4156" xmlns:rdf="http://www.w3.org/1999/02/22-rdf-syntax-ns#" xmlns="http://www.w3.org/2000/svg" height="645" viewBox="0 0 317.8125 645" width="317.81" version="1.1" xmlns:cc="http://creativecommons.org/ns#" xmlns:dc="http://purl.org/dc/elements/1.1/">
<path id="path4166" d="m98.527 640.08c-0.54-2.71-2.703-14.42-4.806-26.02-4.479-24.71-20.377-110.85-21.151-114.61l-0.53152-2.5781h93.929 93.929l-0.56619 3.0469c-0.55006 2.9601-5.4897 34.596-16.066 102.89-2.8346 18.305-5.4786 35.18-5.8756 37.5l-0.72182 4.2188-68.578 0.24044-68.578 0.24044-0.98313-4.9279zm-37.37-174.85 0.24875-26.953 50.878-0.24246 50.878-0.24245-0.25337-19.286-0.25337-19.286-8.2106-3.1736c-63.777-24.65-104.29-76.83-111.91-144.12l-0.61268-5.4106 8.3346 2.8966c56.098 19.5 94.458 60.16 110.49 117.14l2.2419 7.9688 0.0669-69.92 0.0669-69.92-2.1337-1.1419c-10.077-5.3931-13.498-31.276-8.5653-64.8 0.2696-1.8322-1.1325 0.85889-3.1749 6.0938-13.062 33.48-31.723 55.365-43.121 50.573-10.418-4.38-1.66-32.37 18.91-60.42l3.7811-5.1562-5.5837 4.9929c-28.106 25.132-46.744 36.614-59.863 36.877-20.126 0.40398-0.43792-26.174 36.627-49.444 9.6401-6.0522 10.482-6.7614 5.465-4.6042-37.883 16.29-72.946 23.087-80.438 15.594-7.5626-7.5626 17.185-21.089 57.938-31.667 8.7656-2.2752 14.25-3.9328 12.188-3.6834-41.615 5.03-86.721 1.16-93.518-8.02-7.9672-10.76 30.704-17.11 83.673-13.73l10.781 0.68647-14.062-3.6597c-38.38-9.996-62.097-22.705-57.697-30.926 4.6058-8.606 52.779 0.48638 81.634 15.408 5.8988 3.0504 3.443 0.74957-4.0523-3.7966-35.322-21.421-56.813-47.774-41.334-50.678 11.388-2.1363 36.206 12.358 61.267 35.781 5.3289 4.9805 6.9901 6.1922 5.042 3.6778-20.62-26.607-30.851-56.726-21.38-62.93 10.61-6.9553 33.02 19.828 44.98 53.768 2.3156 6.5699 2.41 6.0299 0.85934-4.9165-5.2048-36.743 5.4182-67.74 19.232-56.116 9.4763 7.9738 12.297 29.901 7.9439 61.757-0.39986 2.9263 0.20837 1.9562 2.769-4.4161 11.94-29.689 28.75-51.366 39.84-51.366 15.56 0 6.0632 33.192-18.911 66.094-1.6156 2.1284 0.97028 0.05707 5.9798-4.7899 31.547-30.523 65.045-46.179 66.308-30.99 0.75377 9.068-17.64 27.421-43.888 43.79-11.127 6.9392-11.12 7.136 0.0809 2.4431 39.024-16.35 75.857-21.415 75.857-10.432 0 8.1852-26.99 21.246-60 29.036-5.9297 1.3992-12.047 2.9184-13.594 3.3761l-2.8125 0.83212 2.8125-0.49831c23.762-4.2099 74.859-0.20216 82.629 6.4809 12.273 10.557-27.524 18.217-75.129 14.461l-8.4375-0.66571 15.938 4.1093c35.51 9.1559 58.594 20.546 58.594 28.912 0 10.9-37.899 5.4809-76.847-10.989-4.3672-1.8467-8.1276-3.3577-8.3567-3.3577-0.22901 0 3.8726 2.7194 9.1147 6.0431 26.788 16.984 44.213 34.198 44.213 43.675 0 15.467-33.95 0.25126-64.992-29.129l-9.2104-8.7173 5.6616 7.8921c22.623 31.537 29.536 59.923 14.592 59.923-11.166 0-26.187-18.964-38.614-48.75-3.0531-7.3181-3.9726-8.8816-3.5839-6.0938 4.0877 29.316 1.6619 51.399-6.6093 60.169l-3.1823 3.3742 0.0548 71.353 0.0547 71.353 3.1875-11.446c15.325-55.029 50.442-93.07 106.15-114.99 11.359-4.4694 12.453-4.4596 11.832 0.10607-9.6814 71.176-46.599 119.2-111.2 144.65l-10.078 3.9704v19.09 19.09h51.094 51.094v27.188 27.188h-105.01-105.01l0.24875-26.953zm80.685-97.389c4.0964-4.0964-55.525-78.158-62.919-78.158-2.9309 0-0.1266 3.5577 13.922 17.662 17.044 17.112 29.267 32.551 39.845 50.329 5.9055 9.9251 7.5582 11.761 9.1524 10.167zm54.095-3.861c10.216-19.44 33.041-48.087 51.72-64.91 6.8253-6.1473 7.9548-7.5528 6.8236-8.4917-5.5491-4.6054-68.666 72.107-63.543 77.23 1.4254 1.4254 2.7867 0.38317 4.9996-3.828zm-28.01-211.17c0.49808 0 1.9401-1.1163 3.2046-2.4806 6.6706-7.1978-1.9186-17.594-10.759-13.023-7.7418 4.0034-2.8962 18.235 5.4002 15.861 0.6867-0.19653 1.6561-0.35732 2.1541-0.35732zm-18.242-10.682c2.0857-1.794 2.6091-3.0365 2.6091-6.1932 0-7.5003-8.3975-11.168-14.181-6.1932-5.7745 4.967-1.953 14.631 5.7858 14.631 1.9993 0 4.1437-0.83179 5.7858-2.2442zm42.069-0.0569c3.2957-3.2957 3.2103-9.1333-0.1795-12.275-5.5316-5.1265-14.394-1.347-14.394 6.1385 0 7.5016 9.295 11.415 14.574 6.1364zm-52.129-19.702c4.7942-2.4792 5.6615-9.7502 1.6006-13.419-8.4154-7.6023-19.941 4.0452-11.93 12.056 3.0655 3.0655 6.2294 3.4829 10.33 1.3626zm58.633 0.44623c4.9233-1.8718 6.1361-10.156 2.0299-13.865-8.4154-7.6023-19.941 4.0452-11.93 12.056 2.8792 2.8792 5.7199 3.3982 9.9002 1.8088zm-50.226-21.056c5.005-2.5882 6.0112-9.5873 1.9605-13.638-6.9828-6.9828-18.472 1.5843-13.692 10.209 2.436 4.3952 7.1806 5.7818 11.731 3.4287zm43.914-1.9705c2.8324-3.2187 2.776-7.9755-0.13487-11.36-4.9037-5.7009-14.631-1.9582-14.631 5.6295 0 8.1041 9.4495 11.771 14.766 5.73zm-20.815-8.5231c3.272-3.5305 3.0984-8.1142-0.44141-11.654-7.8165-7.8165-19.056 2.9373-12.192 11.664 2.787 3.5431 9.3447 3.5376 12.633-0.01046z"/>
</svg>
